PathFileType	4	(X/Y/Z)	C:\Users\italobelli\Desktop\GitHub\PTbot_officialCBL\Personal_Results\ABD21_noisy2.trc
DataRate	CameraRate	NumFrames	NumMarkers	Units	OrigDataRate	OrigDataStartFrame	OrigNumFrames
106.533333	106.533333	51	9	m	106.533333	301	800
Frame#	Time		gu		centelbow		EpL		centpxt8		centijc7		ij		ts		aa		ai
			X1	Y1	Z1	X2	Y2	Z2	X3	Y3	Z3	X4	Y4	Z4	X5	Y5	Z5	X6	Y6	Z6	X7	Y7	Z7	X8	Y8	Z8	X9	Y9	Z9

301	2.816	-0.10747	0.065831	0.10338	-0.066723	0.2437	0.25717	-0.084831	0.25914	0.23592	-0.046816	-0.15316	-0.008669	-0.046816	0.031938	-0.008669	0	0	0	-0.13685	-0.017721	0.041461	-0.14865	0.082379	0.10469	-0.13896	-0.074014	0.14004
302	2.8254	-0.10776	0.065914	0.10317	-0.066436	0.24504	0.25559	-0.084595	0.26034	0.23428	-0.046816	-0.15316	-0.008669	-0.046816	0.031938	-0.008669	0	0	0	-0.13691	-0.01786	0.041673	-0.14895	0.082561	0.10437	-0.13902	-0.073638	0.14054
303	2.8348	-0.10806	0.065995	0.10296	-0.06615	0.24633	0.25404	-0.084358	0.26149	0.23266	-0.046816	-0.15316	-0.008669	-0.046816	0.031938	-0.008669	0	0	0	-0.13697	-0.017995	0.041882	-0.14924	0.082738	0.10406	-0.13909	-0.073267	0.14102
304	2.8442	-0.10834	0.066073	0.10275	-0.065864	0.2476	0.25252	-0.084122	0.26262	0.23107	-0.046816	-0.15316	-0.008669	-0.046816	0.031938	-0.008669	0	0	0	-0.13703	-0.018126	0.042088	-0.14953	0.082911	0.10375	-0.13915	-0.072902	0.1415
305	2.8536	-0.10862	0.066148	0.10255	-0.06558	0.24882	0.25103	-0.083887	0.26372	0.22952	-0.046816	-0.15316	-0.008669	-0.046816	0.031938	-0.008669	0	0	0	-0.13708	-0.018252	0.04229	-0.1498	0.08308	0.10346	-0.13921	-0.072544	0.14196
306	2.863	-0.10889	0.06622	0.10236	-0.065296	0.25	0.24957	-0.083652	0.26478	0.228	-0.046816	-0.15316	-0.008669	-0.046816	0.031938	-0.008669	0	0	0	-0.13714	-0.018374	0.04249	-0.15007	0.083243	0.10317	-0.13926	-0.072193	0.14241
307	2.8723	-0.10915	0.06629	0.10217	-0.065013	0.25115	0.24815	-0.083418	0.2658	0.22651	-0.046816	-0.15316	-0.008669	-0.046816	0.031938	-0.008669	0	0	0	-0.1372	-0.018492	0.042685	-0.15033	0.083401	0.1029	-0.13931	-0.07185	0.14285
308	2.8817	-0.10941	0.066356	0.10199	-0.064731	0.25225	0.24676	-0.083184	0.2668	0.22507	-0.046816	-0.15316	-0.008669	-0.046816	0.031938	-0.008669	0	0	0	-0.13726	-0.018605	0.042876	-0.15058	0.083555	0.10263	-0.13936	-0.071516	0.14328
309	2.8911	-0.10966	0.066419	0.10182	-0.064451	0.25332	0.24541	-0.082952	0.26775	0.22366	-0.046816	-0.15316	-0.008669	-0.046816	0.031938	-0.008669	0	0	0	-0.13731	-0.018714	0.043063	-0.15081	0.083703	0.10238	-0.13941	-0.07119	0.14369
310	2.9005	-0.10989	0.066479	0.10165	-0.064171	0.25434	0.24409	-0.08272	0.26867	0.2223	-0.046816	-0.15316	-0.008669	-0.046816	0.031938	-0.008669	0	0	0	-0.13737	-0.018817	0.043246	-0.15104	0.083845	0.10213	-0.13945	-0.070875	0.14409
311	2.9099	-0.11012	0.066536	0.10149	-0.063894	0.25532	0.24282	-0.082489	0.26956	0.22098	-0.046816	-0.15316	-0.008669	-0.046816	0.031938	-0.008669	0	0	0	-0.13743	-0.018916	0.043423	-0.15125	0.083982	0.1019	-0.13949	-0.07057	0.14447
312	2.9193	-0.11034	0.066589	0.10134	-0.063617	0.25626	0.24159	-0.082259	0.27041	0.21971	-0.046816	-0.15316	-0.008669	-0.046816	0.031938	-0.008669	0	0	0	-0.13749	-0.01901	0.043596	-0.15145	0.084113	0.10167	-0.13952	-0.070275	0.14484
313	2.9287	-0.11054	0.066638	0.10119	-0.063342	0.25715	0.24041	-0.082031	0.27122	0.21848	-0.046816	-0.15316	-0.008669	-0.046816	0.031938	-0.008669	0	0	0	-0.13755	-0.019098	0.043763	-0.15164	0.084238	0.10146	-0.13955	-0.069992	0.1452
314	2.938	-0.11074	0.066685	0.10105	-0.063069	0.258	0.23927	-0.081803	0.27199	0.2173	-0.046816	-0.15316	-0.008669	-0.046816	0.031938	-0.008669	0	0	0	-0.13761	-0.019182	0.043924	-0.15181	0.084357	0.10127	-0.13958	-0.069721	0.14553
315	2.9474	-0.11092	0.066727	0.10092	-0.062798	0.25881	0.23818	-0.081577	0.27273	0.21617	-0.046816	-0.15316	-0.008669	-0.046816	0.031938	-0.008669	0	0	0	-0.13767	-0.01926	0.044079	-0.15198	0.084469	0.10108	-0.1396	-0.069463	0.14586
316	2.9568	-0.11109	0.066766	0.1008	-0.062528	0.25957	0.23714	-0.081352	0.27342	0.2151	-0.046816	-0.15316	-0.008669	-0.046816	0.031938	-0.008669	0	0	0	-0.13773	-0.019333	0.044227	-0.15212	0.084575	0.10091	-0.13962	-0.069218	0.14616
317	2.9662	-0.11125	0.066801	0.10068	-0.06226	0.26028	0.23615	-0.081129	0.27408	0.21408	-0.046816	-0.15316	-0.008669	-0.046816	0.031938	-0.008669	0	0	0	-0.13779	-0.0194	0.04437	-0.15225	0.084674	0.10075	-0.13963	-0.068986	0.14645
318	2.9756	-0.11139	0.066832	0.10057	-0.061995	0.26094	0.23522	-0.080907	0.27469	0.21311	-0.046816	-0.15316	-0.008669	-0.046816	0.031938	-0.008669	0	0	0	-0.13786	-0.019461	0.044505	-0.15237	0.084766	0.10061	-0.13964	-0.068769	0.14673
319	2.985	-0.11152	0.066859	0.10047	-0.061731	0.26156	0.23434	-0.080686	0.27527	0.21221	-0.046816	-0.15316	-0.008669	-0.046816	0.031938	-0.008669	0	0	0	-0.13792	-0.019517	0.044633	-0.15247	0.084852	0.10048	-0.13964	-0.068567	0.14698
320	2.9944	-0.11164	0.066882	0.10038	-0.06147	0.26213	0.23351	-0.080467	0.2758	0.21136	-0.046816	-0.15316	-0.008669	-0.046816	0.031938	-0.008669	0	0	0	-0.13798	-0.019567	0.044753	-0.15255	0.08493	0.10036	-0.13964	-0.068381	0.14722
321	3.0038	-0.11174	0.066901	0.1003	-0.06121	0.26266	0.23275	-0.08025	0.27629	0.21057	-0.046816	-0.15316	-0.008669	-0.046816	0.031938	-0.008669	0	0	0	-0.13805	-0.019611	0.044867	-0.15262	0.085001	0.10026	-0.13964	-0.06821	0.14744
322	3.0131	-0.11184	0.066918	0.10021	-0.060949	0.26317	0.232	-0.080031	0.27678	0.20981	-0.046816	-0.15316	-0.008669	-0.046816	0.031938	-0.008669	0	0	0	-0.13811	-0.019654	0.044977	-0.15268	0.08507	0.10017	-0.13963	-0.068043	0.14765
323	3.0225	-0.11193	0.066934	0.10013	-0.060685	0.26368	0.23127	-0.079808	0.27726	0.20906	-0.046816	-0.15316	-0.008669	-0.046816	0.031938	-0.008669	0	0	0	-0.13818	-0.019697	0.045086	-0.15273	0.085138	0.10007	-0.13963	-0.067879	0.14786
324	3.0319	-0.11203	0.066948	0.10005	-0.060419	0.26418	0.23056	-0.079584	0.27774	0.20833	-0.046816	-0.15316	-0.008669	-0.046816	0.031938	-0.008669	0	0	0	-0.13826	-0.019739	0.045194	-0.15278	0.085204	0.099982	-0.13962	-0.067717	0.14806
325	3.0413	-0.11212	0.06696	0.099973	-0.060151	0.26469	0.22986	-0.079357	0.27822	0.20762	-0.046816	-0.15316	-0.008669	-0.046816	0.031938	-0.008669	0	0	0	-0.13834	-0.019781	0.045299	-0.15283	0.08527	0.099894	-0.13961	-0.067558	0.14826
326	3.0507	-0.1122	0.066971	0.099894	-0.059881	0.26519	0.22917	-0.079129	0.2787	0.20692	-0.046816	-0.15316	-0.008669	-0.046816	0.031938	-0.008669	0	0	0	-0.13842	-0.019822	0.045403	-0.15288	0.085335	0.099808	-0.1396	-0.067401	0.14846
327	3.0601	-0.11229	0.066981	0.099815	-0.05961	0.26568	0.2285	-0.078899	0.27917	0.20624	-0.046816	-0.15316	-0.008669	-0.046816	0.031938	-0.008669	0	0	0	-0.13851	-0.019863	0.045505	-0.15293	0.085398	0.099724	-0.1396	-0.067247	0.14865
328	3.0695	-0.11237	0.06699	0.099737	-0.059338	0.26617	0.22784	-0.078667	0.27964	0.20558	-0.046816	-0.15316	-0.008669	-0.046816	0.031938	-0.008669	0	0	0	-0.13859	-0.019903	0.045606	-0.15297	0.08546	0.099643	-0.13959	-0.067095	0.14884
329	3.0788	-0.11246	0.066997	0.09966	-0.059065	0.26666	0.2272	-0.078435	0.2801	0.20494	-0.046816	-0.15316	-0.008669	-0.046816	0.031938	-0.008669	0	0	0	-0.13868	-0.019943	0.045704	-0.153	0.085521	0.099564	-0.13958	-0.066946	0.14903
330	3.0882	-0.11254	0.067003	0.099584	-0.058792	0.26714	0.22657	-0.078201	0.28057	0.20431	-0.046816	-0.15316	-0.008669	-0.046816	0.031938	-0.008669	0	0	0	-0.13878	-0.019983	0.045801	-0.15304	0.08558	0.099487	-0.13957	-0.066799	0.14921
331	3.0976	-0.11261	0.067009	0.099508	-0.058519	0.26762	0.22595	-0.077967	0.28103	0.2037	-0.046816	-0.15316	-0.008669	-0.046816	0.031938	-0.008669	0	0	0	-0.13887	-0.020022	0.045896	-0.15307	0.085639	0.099412	-0.13956	-0.066655	0.14939
332	3.107	-0.11269	0.067013	0.099433	-0.058245	0.2681	0.22535	-0.077733	0.28148	0.20311	-0.046816	-0.15316	-0.008669	-0.046816	0.031938	-0.008669	0	0	0	-0.13897	-0.02006	0.04599	-0.1531	0.085696	0.099339	-0.13956	-0.066514	0.14957
333	3.1164	-0.11276	0.067017	0.099359	-0.057972	0.26857	0.22476	-0.077498	0.28193	0.20253	-0.046816	-0.15316	-0.008669	-0.046816	0.031938	-0.008669	0	0	0	-0.13907	-0.020098	0.046081	-0.15313	0.085752	0.099268	-0.13955	-0.066375	0.14974
334	3.1258	-0.11284	0.067019	0.099286	-0.0577	0.26903	0.22419	-0.077264	0.28238	0.20197	-0.046816	-0.15316	-0.008669	-0.046816	0.031938	-0.008669	0	0	0	-0.13917	-0.020136	0.04617	-0.15316	0.085806	0.0992	-0.13954	-0.06624	0.1499
335	3.1352	-0.11291	0.067021	0.099213	-0.057429	0.26949	0.22364	-0.07703	0.28282	0.20143	-0.046816	-0.15316	-0.008669	-0.046816	0.031938	-0.008669	0	0	0	-0.13928	-0.020173	0.046258	-0.15318	0.08586	0.099133	-0.13953	-0.066107	0.15007
336	3.1446	-0.11298	0.067022	0.099142	-0.057159	0.26994	0.22309	-0.076797	0.28326	0.2009	-0.046816	-0.15316	-0.008669	-0.046816	0.031938	-0.008669	0	0	0	-0.13938	-0.020209	0.046344	-0.1532	0.085911	0.099068	-0.13952	-0.065977	0.15023
337	3.1539	-0.11304	0.067023	0.099071	-0.056891	0.27039	0.22256	-0.076565	0.28369	0.20039	-0.046816	-0.15316	-0.008669	-0.046816	0.031938	-0.008669	0	0	0	-0.13949	-0.020245	0.046427	-0.15322	0.085962	0.099005	-0.13951	-0.065849	0.15038
338	3.1633	-0.11311	0.067023	0.099001	-0.056624	0.27084	0.22205	-0.076333	0.28412	0.1999	-0.046816	-0.15316	-0.008669	-0.046816	0.031938	-0.008669	0	0	0	-0.13959	-0.020281	0.046509	-0.15324	0.086011	0.098944	-0.1395	-0.065725	0.15053
339	3.1727	-0.11318	0.067023	0.098932	-0.05636	0.27127	0.22155	-0.076104	0.28455	0.19942	-0.046816	-0.15316	-0.008669	-0.046816	0.031938	-0.008669	0	0	0	-0.1397	-0.020315	0.046589	-0.15326	0.086059	0.098885	-0.13949	-0.065604	0.15068
340	3.1821	-0.11324	0.067022	0.098864	-0.056098	0.27171	0.22107	-0.075876	0.28497	0.19895	-0.046816	-0.15316	-0.008669	-0.046816	0.031938	-0.008669	0	0	0	-0.13981	-0.02035	0.046667	-0.15327	0.086105	0.098828	-0.13948	-0.065486	0.15082
341	3.1915	-0.1133	0.067021	0.098797	-0.055839	0.27213	0.2206	-0.07565	0.28538	0.19851	-0.046816	-0.15316	-0.008669	-0.046816	0.031938	-0.008669	0	0	0	-0.13992	-0.020383	0.046742	-0.15328	0.08615	0.098772	-0.13947	-0.065371	0.15096
342	3.2009	-0.11336	0.067019	0.098731	-0.055583	0.27255	0.22014	-0.075426	0.28579	0.19808	-0.046816	-0.15316	-0.008669	-0.046816	0.031938	-0.008669	0	0	0	-0.14003	-0.020417	0.046816	-0.1533	0.086193	0.098719	-0.13946	-0.065258	0.1511
343	3.2103	-0.11342	0.067017	0.098665	-0.055331	0.27296	0.2197	-0.075204	0.28619	0.19766	-0.046816	-0.15316	-0.008669	-0.046816	0.031938	-0.008669	0	0	0	-0.14014	-0.020449	0.046888	-0.15331	0.086235	0.098666	-0.13944	-0.06515	0.15123
344	3.2196	-0.11348	0.067016	0.098601	-0.055082	0.27337	0.21928	-0.074985	0.28659	0.19726	-0.046816	-0.15316	-0.008669	-0.046816	0.031938	-0.008669	0	0	0	-0.14024	-0.020481	0.046957	-0.15332	0.086276	0.098616	-0.13943	-0.065044	0.15136
345	3.229	-0.11354	0.067014	0.098538	-0.054837	0.27377	0.21887	-0.07477	0.28698	0.19688	-0.046816	-0.15316	-0.008669	-0.046816	0.031938	-0.008669	0	0	0	-0.14035	-0.020512	0.047025	-0.15333	0.086314	0.098567	-0.13942	-0.064941	0.15148
346	3.2384	-0.1136	0.067012	0.098475	-0.054597	0.27416	0.21847	-0.074557	0.28737	0.19651	-0.046816	-0.15316	-0.008669	-0.046816	0.031938	-0.008669	0	0	0	-0.14046	-0.020543	0.04709	-0.15334	0.086352	0.098519	-0.13941	-0.064842	0.1516
347	3.2478	-0.11366	0.06701	0.098414	-0.054361	0.27455	0.21809	-0.074348	0.28775	0.19615	-0.046816	-0.15316	-0.008669	-0.046816	0.031938	-0.008669	0	0	0	-0.14057	-0.020573	0.047153	-0.15335	0.086388	0.098474	-0.1394	-0.064746	0.15171
348	3.2572	-0.11371	0.067008	0.098353	-0.05413	0.27493	0.21772	-0.074142	0.28812	0.19582	-0.046816	-0.15316	-0.008669	-0.046816	0.031938	-0.008669	0	0	0	-0.14067	-0.020603	0.047214	-0.15335	0.086422	0.098429	-0.13939	-0.064653	0.15182
349	3.2666	-0.11377	0.067007	0.098294	-0.053903	0.2753	0.21737	-0.073941	0.28849	0.19549	-0.046816	-0.15316	-0.008669	-0.046816	0.031938	-0.008669	0	0	0	-0.14078	-0.020632	0.047272	-0.15336	0.086454	0.098386	-0.13938	-0.064564	0.15193
350	3.276	-0.11383	0.067005	0.098235	-0.053683	0.27567	0.21703	-0.073744	0.28885	0.19519	-0.046816	-0.15316	-0.008669	-0.046816	0.031938	-0.008669	0	0	0	-0.14088	-0.02066	0.047329	-0.15337	0.086485	0.098345	-0.13937	-0.064478	0.15203
351	3.2854	-0.11388	0.067004	0.098178	-0.053468	0.27602	0.21671	-0.073551	0.2892	0.19489	-0.046816	-0.15316	-0.008669	-0.046816	0.031938	-0.008669	0	0	0	-0.14098	-0.020688	0.047383	-0.15337	0.086515	0.098304	-0.13936	-0.064395	0.15213
